<svg width="200" height="32" viewBox="0 0 200 32" fill="none" xmlns="http://www.w3.org/2000/svg">
<path d="M0 11.1836L22.8146 0V8.9469L0 20.1305V11.1836Z" fill="#0F547E"/>
<path d="M0 20.3542L22.8146 31.5378V22.5909L0 11.4073V20.3542Z" fill="#28B2B6"/>
<path d="M52.1725 10.3068L43.9021 18.997L52.3404 30.9618H45.4974L40.0398 23.0692L37.7308 25.5042V30.9618H32.1472V0.567014H37.7308V17.9894L44.8677 10.3068H52.1725Z" fill="#0F547E"/>
<path d="M51.3276 25.3362C51.3276 23.573 51.9014 22.1596 53.0489 21.0961C54.1964 20.0326 55.6797 19.3608 57.4989 19.081L62.5787 18.3253C63.6143 18.1854 64.1321 17.6956 64.1321 16.8559C64.1321 16.0723 63.8242 15.4286 63.2085 14.9248C62.6207 14.421 61.7671 14.1691 60.6476 14.1691C59.4721 14.1691 58.5345 14.491 57.8348 15.1347C57.1631 15.7784 56.7853 16.5761 56.7013 17.5276L51.7474 16.4781C51.9434 14.6869 52.825 13.1056 54.3923 11.7342C55.9596 10.3628 58.0307 9.67705 60.6056 9.67705C63.6843 9.67705 65.9513 10.4187 67.4066 11.9021C68.862 13.3575 69.5897 15.2326 69.5897 17.5276V27.6872C69.5897 28.9187 69.6737 30.0102 69.8416 30.9618H64.7198C64.5799 30.3461 64.5099 29.5204 64.5099 28.4849C63.1945 30.528 61.1654 31.5495 58.4225 31.5495C56.2955 31.5495 54.5742 30.9338 53.2588 29.7023C51.9713 28.4709 51.3276 27.0155 51.3276 25.3362ZM59.598 27.3934C60.9135 27.3934 61.991 27.0295 62.8306 26.3018C63.6983 25.5462 64.1321 24.3147 64.1321 22.6074V21.6838L59.4721 22.3975C57.7648 22.6494 56.9112 23.517 56.9112 25.0004C56.9112 25.6721 57.1491 26.2459 57.6249 26.7216C58.1007 27.1695 58.7584 27.3934 59.598 27.3934Z" fill="#0F547E"/>
<path d="M78.2825 30.9618H72.699V0.567014H78.2825V30.9618Z" fill="#0F547E"/>
<path d="M85.8137 18.2833H95.0497C94.9937 17.1358 94.5739 16.1702 93.7902 15.3866C93.0345 14.6029 91.915 14.2111 90.4317 14.2111C89.0882 14.2111 87.9967 14.6309 87.1571 15.4705C86.3174 16.3102 85.8696 17.2478 85.8137 18.2833ZM95.5954 23.657L100.255 25.0424C99.6956 26.9455 98.5901 28.5129 96.9388 29.7443C95.3155 30.9758 93.2864 31.5915 90.8515 31.5915C87.8848 31.5915 85.3659 30.598 83.2948 28.6108C81.2237 26.5957 80.1881 23.9089 80.1881 20.5503C80.1881 17.3597 81.1957 14.7568 83.2108 12.7417C85.2259 10.6986 87.6049 9.67705 90.3477 9.67705C93.5383 9.67705 96.0292 10.6286 97.8204 12.5318C99.6397 14.435 100.549 17.0518 100.549 20.3824C100.549 20.6063 100.535 20.8582 100.507 21.1381C100.507 21.4179 100.507 21.6419 100.507 21.8098L100.465 22.1037H85.6877C85.7437 23.4471 86.2755 24.5666 87.283 25.4622C88.2906 26.3578 89.4941 26.8056 90.8935 26.8056C93.2724 26.8056 94.8397 25.7561 95.5954 23.657Z" fill="#0F547E"/>
<path d="M108.011 30.9618H102.427V10.3068H108.011V30.9618ZM101.756 3.54772C101.756 2.59613 102.091 1.78449 102.763 1.11278C103.435 0.413081 104.246 0.0632324 105.198 0.0632324C106.15 0.0632324 106.961 0.399087 107.633 1.0708C108.305 1.7425 108.641 2.56814 108.641 3.54772C108.641 4.47132 108.305 5.26897 107.633 5.94068C106.961 6.61239 106.15 6.94824 105.198 6.94824C104.246 6.94824 103.435 6.61239 102.763 5.94068C102.091 5.26897 101.756 4.47132 101.756 3.54772Z" fill="#0F547E"/>
<path d="M131.159 0.567014V27.2254C131.159 28.5968 131.215 29.8423 131.327 30.9618H125.995C125.856 30.2621 125.786 29.4645 125.786 28.5688C125.31 29.4365 124.554 30.1362 123.519 30.6679C122.511 31.1997 121.335 31.4656 119.992 31.4656C117.053 31.4656 114.632 30.444 112.729 28.4009C110.854 26.3298 109.916 23.7269 109.916 20.5923C109.916 17.5416 110.84 14.9807 112.687 12.9096C114.562 10.8386 116.941 9.803 119.824 9.803C122.791 9.803 124.736 10.6566 125.66 12.3639V0.567014H131.159ZM115.542 20.5923C115.542 22.4115 116.018 23.8529 116.969 24.9164C117.921 25.952 119.152 26.4698 120.664 26.4698C122.147 26.4698 123.365 25.938 124.316 24.8744C125.268 23.8109 125.744 22.3695 125.744 20.5503C125.744 18.7591 125.268 17.3597 124.316 16.3522C123.365 15.3166 122.147 14.7988 120.664 14.7988C119.18 14.7988 117.949 15.3166 116.969 16.3522C116.018 17.3877 115.542 18.8011 115.542 20.5923Z" fill="#0F547E"/>
<path d="M140.239 24.9584C141.275 25.994 142.52 26.5117 143.975 26.5117C145.431 26.5117 146.662 25.994 147.67 24.9584C148.705 23.9229 149.223 22.4815 149.223 20.6343C149.223 18.7871 148.705 17.3457 147.67 16.3102C146.662 15.2746 145.431 14.7568 143.975 14.7568C142.52 14.7568 141.275 15.2746 140.239 16.3102C139.232 17.3457 138.728 18.7871 138.728 20.6343C138.728 22.4815 139.232 23.9229 140.239 24.9584ZM136.209 12.7837C138.28 10.7126 140.869 9.67705 143.975 9.67705C147.082 9.67705 149.657 10.7126 151.7 12.7837C153.771 14.8548 154.807 17.4717 154.807 20.6343C154.807 23.7969 153.771 26.4138 151.7 28.4849C149.657 30.556 147.082 31.5915 143.975 31.5915C140.869 31.5915 138.28 30.556 136.209 28.4849C134.166 26.4138 133.144 23.7969 133.144 20.6343C133.144 17.4717 134.166 14.8548 136.209 12.7837Z" fill="#0F547E"/>
<path d="M172.13 15.0926H163.859V30.9617H158.234V15.0926H154.791V10.3066H158.234V7.95567C158.234 5.63268 158.905 3.77149 160.249 2.3721C161.62 0.972705 163.453 0.27301 165.748 0.27301C166.98 0.27301 167.904 0.412949 168.519 0.692828V5.39478C168.043 5.25484 167.456 5.18487 166.756 5.18487C166 5.18487 165.329 5.40878 164.741 5.85658C164.153 6.2764 163.859 7.00408 163.859 8.03963V10.3066H177.671V30.9617H172.13V15.0926ZM172.466 5.94055C171.794 5.26884 171.458 4.45719 171.458 3.5056C171.458 2.55402 171.794 1.74237 172.466 1.07066C173.137 0.370967 173.949 0.0211182 174.901 0.0211182C175.852 0.0211182 176.664 0.370967 177.335 1.07066C178.007 1.74237 178.343 2.55402 178.343 3.5056C178.343 4.45719 178.007 5.26884 177.335 5.94055C176.664 6.58427 175.852 6.90613 174.901 6.90613C173.949 6.90613 173.137 6.58427 172.466 5.94055Z" fill="#28B2B6"/>
<path d="M186.733 19.0808V30.9617H181.15V10.3066H186.566V12.8675C187.153 11.86 187.993 11.0903 189.084 10.5585C190.176 10.0268 191.323 9.76089 192.527 9.76089C194.962 9.76089 196.809 10.5306 198.069 12.0699C199.356 13.5812 200 15.5404 200 17.9473V30.9617H194.416V18.9129C194.416 17.6814 194.094 16.6879 193.451 15.9322C192.835 15.1765 191.883 14.7987 190.596 14.7987C189.42 14.7987 188.483 15.2045 187.783 16.0162C187.083 16.8278 186.733 17.8494 186.733 19.0808Z" fill="#28B2B6"/>
</svg>
