<svg width="447" height="268" viewBox="0 0 447 268" fill="none" xmlns="http://www.w3.org/2000/svg">
<g clip-path="url(#clip0_7488_10393)">
<path d="M111.63 0H36.6677V86.1151H111.63V0Z" fill="#BFE8FF"/>
<path d="M111.63 93.1563H36.6677V179.409H111.63V93.1563Z" fill="#BFE8FF"/>
<path d="M194.288 0H117.816V86.1151H194.288V0Z" fill="#BFE8FF"/>
<path d="M194.288 93.1563H117.816V179.409H194.288V93.1563Z" fill="#BFE8FF"/>
<path d="M440.758 268H1.40636C0.629163 268 0 267.37 0 266.592C0 265.814 0.629163 265.183 1.40636 265.183H440.758C441.535 265.183 442.164 265.814 442.164 266.592C442.164 267.37 441.535 268 440.758 268Z" fill="#2E5B99"/>
<path d="M443.599 227.842C443.155 224.319 442.02 221.032 440.349 218.131L441.269 217.599L443.088 216.551L443.11 216.537C441.204 213.212 438.68 210.32 435.693 208.012L433.742 210.53C431.04 208.442 427.938 206.868 424.581 205.975L425.411 202.89C421.849 201.913 418.03 201.615 414.143 202.107L414.543 205.28C411.013 205.726 407.742 206.861 404.844 208.534L403.251 205.769C399.931 207.678 397.044 210.218 394.737 213.196L397.252 215.15C395.167 217.855 393.595 220.961 392.702 224.323L389.621 223.492C388.645 227.058 388.347 230.883 388.839 234.776L392.007 234.375C392.453 237.908 393.586 241.185 395.257 244.086L393.303 245.212L392.508 245.68H392.495C394.402 249.006 396.938 251.897 399.913 254.207L401.864 251.689C404.566 253.776 407.68 255.349 411.036 256.243L410.205 259.328C413.767 260.306 417.574 260.606 421.463 260.113L421.063 256.94C424.592 256.494 427.875 255.357 430.774 253.685L432.009 255.836L432.367 256.45C435.687 254.54 438.562 252.003 440.869 249.024L438.354 247.07C440.439 244.365 442.009 241.247 442.913 237.885L445.994 238.716C446.958 235.151 447.257 231.34 446.766 227.445L443.597 227.845L443.599 227.842ZM419.574 245.133C411.832 246.112 404.774 240.631 403.796 232.878C402.819 225.138 408.293 218.071 416.035 217.091C423.765 216.114 430.823 221.595 431.8 229.335C432.778 237.087 427.304 244.155 419.574 245.133Z" fill="#ED5A24"/>
<path d="M414.234 169.278C413.147 167.038 411.652 165.109 409.89 163.558L410.382 162.997L411.354 161.891L411.367 161.876C409.351 160.098 407.024 158.746 404.52 157.885L403.79 159.997C401.524 159.219 399.11 158.873 396.679 159.037L396.537 156.799C393.949 156.953 391.345 157.616 388.872 158.82L389.852 160.839C387.607 161.931 385.689 163.424 384.138 165.189L382.457 163.71C380.681 165.729 379.334 168.067 378.471 170.566L380.582 171.297C379.805 173.566 379.459 175.984 379.621 178.417L377.387 178.56C377.54 181.151 378.203 183.759 379.405 186.235L381.421 185.254C382.512 187.502 384.003 189.422 385.765 190.975L384.72 192.164L384.297 192.653L384.29 192.657C386.306 194.436 388.641 195.784 391.137 196.649L391.866 194.534C394.133 195.313 396.554 195.655 398.986 195.491L399.129 197.729C401.716 197.575 404.312 196.915 406.786 195.712L405.807 193.693C408.052 192.6 409.978 191.104 411.527 189.339L412.831 190.49L413.207 190.816C414.983 188.797 416.323 186.464 417.186 183.964L415.077 183.233C415.854 180.964 416.196 178.539 416.041 176.1L418.275 175.957C418.115 173.37 417.456 170.771 416.254 168.293L414.238 169.274L414.234 169.278ZM402.16 186.187C397.236 188.586 391.313 186.535 388.92 181.604C386.53 176.681 388.576 170.751 393.5 168.353C398.417 165.96 404.339 168.009 406.73 172.932C409.125 177.863 407.077 183.794 402.16 186.187Z" stroke="#CC9B47" stroke-width="3" stroke-miterlimit="10"/>
<path d="M81.3824 154.496C84.3149 157.525 80.0271 161.257 80.0606 166.119C80.0958 170.981 85.9557 172.754 81.2238 179.907C78.3106 184.311 74.4862 179.727 72.5706 186.058C70.6531 192.39 73.0834 193.004 70.1949 195.644C65.1581 200.247 55.1937 193.548 57.1358 187.218C59.0779 180.89 65.0347 180.447 61.5276 176.079C58.0205 171.713 56.6705 169.804 60.9478 166.56C66.2419 162.544 71.8127 164.515 71.5431 159.958C71.2735 155.402 77.5034 150.489 81.3806 154.495L81.3824 154.496Z" fill="#FFCA59"/>
<path d="M63.831 202.606L62.8229 202.575C63.5949 178.689 76.0882 159.995 76.2151 159.81L77.0487 160.376C76.9236 160.56 64.5923 179.023 63.8292 202.606H63.831Z" fill="#0E0E0E"/>
<path d="M19.3455 143.83C16.2155 148.528 22.7627 152.403 23.8888 158.813C25.015 165.222 17.569 166.442 25.5225 174.713C30.4219 179.808 31.9305 177.231 32.6478 187.264C33.2787 196.096 40.8886 188.785 45.0953 194.482C50.5234 201.83 62.2572 188.852 58.1738 180.99C54.0904 173.128 47.9644 174.203 51.5262 167.607C55.0897 161.01 52.6365 155.354 46.2215 152.118C38.282 148.11 34.359 154.708 33.6135 148.645C32.8681 142.581 23.4835 137.619 19.3437 143.83H19.3455Z" fill="#ED5A24"/>
<path d="M54.0605 202.926C47.3635 172.045 26.6769 150.738 26.4689 150.526L27.4312 149.578C27.6427 149.793 48.5989 171.381 55.3787 202.64L54.0605 202.928V202.926Z" fill="#0E0E0E"/>
<path d="M37.8238 202.142H77.6373V229.317C77.6373 240.319 68.718 249.252 57.7297 249.252C46.7431 249.252 37.822 240.32 37.822 229.317V202.142H37.8238Z" fill="#C1D6F7"/>
<path d="M37.8238 222.678H35.6173V264.857H37.8238V222.678Z" fill="#0E0E0E"/>
<path d="M79.8437 222.678H77.6373V264.857H79.8437V222.678Z" fill="#0E0E0E"/>
<path d="M62.9603 222.678H60.7538V264.857H62.9603V222.678Z" fill="#0E0E0E"/>
<path d="M77.7395 249.25H35.6173V251.459H77.7395V249.25Z" fill="#0E0E0E"/>
<path d="M224.363 67.146V55.273C224.363 49.8817 219.999 45.5105 214.615 45.5105H110.828C105.444 45.5105 101.078 49.8817 101.078 55.273V265.161H369.544V67.146H224.363Z" fill="white"/>
<path d="M225.224 67.146V55.273C225.224 49.8817 220.861 45.5105 215.477 45.5105H111.69C106.306 45.5105 101.94 49.8817 101.94 55.273V265.161H370.406V67.146H225.224Z" fill="#6CCBCE"/>
<path d="M110.932 75.3502V265.161H359.627V74.4185L110.932 75.3502Z" fill="#BAE2FF"/>
<path d="M124.587 75.3502V265.161H373.28V74.4185L124.587 75.3502Z" fill="#A0D1F4"/>
<path d="M383.306 67.1478H137.614C132.57 67.1478 128.857 70.5643 128.132 75.2902V265.161H396.281V80.1079C396.341 73.289 390.196 67.1478 383.305 67.1478H383.306Z" fill="white"/>
<path d="M347.16 31.5878L194.468 32.0148L194.792 148.213L347.484 147.786L347.16 31.5878Z" fill="#EBF3FF"/>
<path d="M343.187 35.3914L198.306 35.7965L198.604 142.618L343.485 142.213L343.187 35.3914Z" fill="#86C0FC"/>
<path d="M210.817 134.008L303.923 133.747L253.015 84.8427L210.817 134.008Z" fill="#E3EEFF"/>
<path d="M253.153 133.888L331.384 133.669L288.934 93.2516L253.153 133.888Z" fill="#E3EEFF"/>
<path d="M289.719 81.5996C293.93 77.3833 293.93 70.5473 289.719 66.331C285.509 62.1146 278.682 62.1146 274.471 66.331C270.261 70.5473 270.261 77.3833 274.471 81.5996C278.682 85.816 285.509 85.816 289.719 81.5996Z" fill="#E3EEFF"/>
<path d="M366.89 17.6447L225.332 18.0901L225.719 141.361L367.276 140.915L366.89 17.6447Z" fill="#EBF3FF"/>
<path d="M362.8 21.6865L229.28 22.1065L229.636 135.43L363.155 135.01L362.8 21.6865Z" fill="#86C0FC"/>
<path d="M295.573 37.7316H242.397V42.4099H295.573V37.7316Z" fill="#CCE5FF"/>
<path d="M350.585 50.3652H242.397V55.0435H350.585V50.3652Z" fill="#CCE5FF"/>
<path d="M350.585 63.2266H242.397V67.9049H350.585V63.2266Z" fill="#CCE5FF"/>
<path d="M384.489 67.1478H138.798C133.754 67.1478 130.041 70.5643 129.317 75.2902V265.161H397.465V80.1079C397.525 73.289 391.38 67.1478 384.489 67.1478Z" fill="#93D7D9"/>
<path d="M128.132 264.068H101.077V265.161H128.132V264.068Z" fill="white"/>
<g style="mix-blend-mode:darken" opacity="0.5">
<path d="M101.077 147.457L110.932 153.896H124.484L128.132 156.461V154.057H396.283V147.457H101.077Z" fill="black"/>
</g>
<path d="M401.746 115.955H97.2682V150.404H401.746V115.955Z" fill="#61B3F2"/>
<path d="M401.744 115.955H124.676V150.404H401.744V115.955Z" fill="#9ED5FF"/>
<path d="M201.274 115.955V150.39H225.348L208.468 115.955H201.274Z" fill="#0E0E0E"/>
<path d="M202.009 115.965H195.615V150.39H202.009C204.104 150.39 206.001 148.498 207.365 145.322C208.762 142.219 209.594 137.906 209.594 133.14C209.594 123.683 206.202 115.965 202.009 115.965ZM201.41 133.14C201.41 130.265 202.342 127.92 203.539 127.54C204.735 127.92 205.668 130.265 205.668 133.14C205.668 136.014 204.735 138.436 203.539 138.813C202.34 138.434 201.41 136.09 201.41 133.14Z" fill="#2475B3"/>
<path d="M198.401 115.965H195.617V150.39H198.401C200.596 150.39 202.578 148.498 204.006 145.322C205.467 142.219 206.337 137.906 206.337 133.14C206.337 123.683 202.786 115.965 198.401 115.965ZM200.211 138.815C198.958 138.436 197.984 136.092 197.984 133.141C197.984 130.191 198.958 127.921 200.211 127.542C201.464 127.921 203.274 130.267 203.274 133.141C203.274 136.016 201.464 138.437 200.211 138.815Z" fill="#5D97C2"/>
<path d="M198.946 115.965H192.552V150.39H198.946C201.041 150.39 202.938 148.498 204.302 145.322C205.699 142.219 206.531 137.906 206.531 133.14C206.531 123.683 203.139 115.965 198.946 115.965ZM198.347 133.14C198.347 130.265 199.279 127.92 200.476 127.54C201.672 127.92 202.605 130.265 202.605 133.14C202.605 136.014 201.672 138.436 200.476 138.813C199.277 138.434 198.347 136.09 198.347 133.14Z" fill="#2475B3"/>
<path d="M195.338 115.965H192.554V150.39H195.338C197.533 150.39 199.515 148.498 200.943 145.322C202.404 142.219 203.274 137.906 203.274 133.14C203.274 123.683 199.723 115.965 195.338 115.965ZM197.984 138.815C196.731 138.436 195.756 136.092 195.756 133.141C195.756 130.191 196.731 127.921 197.984 127.542C199.237 127.921 200.211 130.267 200.211 133.141C200.211 136.016 199.237 138.437 197.984 138.815Z" fill="#61B3F2"/>
<path d="M198.978 150.616C198.956 150.616 198.942 150.616 198.939 150.616C198.815 150.61 198.719 150.506 198.724 150.383C198.729 150.259 198.835 150.162 198.956 150.168C198.971 150.168 200.527 150.203 202.162 148.62C203.962 146.878 206.106 142.923 206.106 133.966C206.106 117.619 198.983 116.198 198.911 116.186C198.789 116.165 198.708 116.048 198.727 115.927C198.749 115.805 198.865 115.724 198.986 115.743C199.066 115.757 200.939 116.105 202.816 118.556C204.52 120.781 206.554 125.262 206.554 133.964C206.554 143.1 204.325 147.159 202.457 148.957C200.81 150.54 199.251 150.612 198.979 150.612L198.978 150.616Z" fill="#8DCDFF"/>
<path d="M197.987 138.353C197.684 138.429 197.46 138.504 197.157 138.58C197.208 138.631 197.208 138.656 197.157 138.656C184.992 142.288 176.002 153.485 176.002 166.876V195.634H166.33V166.876C166.33 148.265 179.401 132.679 196.856 128.744C197.235 128.592 197.612 128.516 197.989 128.442C200.786 127.837 201.013 137.899 197.989 138.351L197.987 138.353Z" fill="#CCCCCC"/>
<path d="M209.434 127.928V137.559C221.901 139.166 231.966 148.428 234.643 160.53C234.72 160.832 234.794 161.058 234.794 161.285C234.946 161.966 235.021 162.57 235.097 163.253C235.249 164.464 235.325 165.674 235.325 166.885V195.643H244.921V166.885C244.921 146.546 229.311 129.882 209.435 127.928H209.434Z" fill="#CCCCCC"/>
<path d="M198.209 135.511C175.531 139.494 172.611 164.218 172.611 164.218V195.643H176.012V166.885C176.012 153.21 185.376 141.78 197.978 138.374C198.942 138.062 199.542 135.238 199.542 135.238C199.542 135.238 198.946 135.372 198.209 135.513V135.511Z" fill="#808080"/>
<path d="M209.434 135.511V137.559C221.901 139.166 231.966 148.428 234.643 160.53C234.1 153.466 228.25 138.028 209.434 135.513V135.511Z" fill="#808080"/>
<path d="M197.987 138.353C197.684 138.429 197.46 138.504 197.157 138.58C197.384 137.975 198.613 136.6 198.764 133.726C198.916 130.773 197.915 128.779 196.854 128.744C197.233 128.592 197.61 128.516 197.987 128.442C200.784 127.837 201.011 137.899 197.987 138.351V138.353Z" fill="#666666"/>
<path d="M166.436 197.422C166.192 197.422 165.995 197.224 165.995 196.98V167.764C165.983 167.476 165.835 163.361 167.097 157.821C168.279 152.626 170.984 145.18 177.153 139.217C177.327 139.048 177.607 139.053 177.776 139.228C177.946 139.403 177.94 139.683 177.766 139.853C171.762 145.659 169.121 152.921 167.962 157.992C166.704 163.505 166.873 167.695 166.874 167.737V167.757V196.984C166.874 197.227 166.677 197.425 166.434 197.425L166.436 197.422Z" fill="white"/>
<path d="M253.308 187.793H158.029V265.782H253.308V187.793Z" fill="#F7AF0C"/>
<path d="M193.356 218.821C193.356 223.631 196.228 227.833 200.306 229.665V249.751C200.306 252.119 201.97 254.105 204.163 254.563H204.388C204.615 254.639 204.917 254.639 205.144 254.639C207.789 254.639 209.978 252.425 209.978 249.751V229.665C214.058 227.755 216.931 223.631 216.931 218.821C216.931 212.251 211.64 206.981 205.144 206.981C204.841 206.981 204.54 206.981 204.237 207.057C198.118 207.516 193.357 212.556 193.357 218.819L193.356 218.821Z" fill="#CC840A"/>
<path d="M193.356 218.821C193.356 223.631 196.228 227.833 200.306 229.665V249.751C200.306 252.119 201.97 254.105 204.163 254.563H204.388C206.579 254.105 208.242 252.119 208.242 249.751V229.665C212.322 227.755 215.195 223.631 215.195 218.821C215.195 212.558 210.359 207.438 204.238 207.059C198.119 207.518 193.359 212.558 193.359 218.821H193.356Z" fill="#803D00"/>
<path d="M223.073 265.782H253.306V187.793H244.919C244.919 187.793 247.146 245.337 223.073 265.782Z" fill="#E6950B"/>
<path d="M178.487 265.782C171.266 250.31 172.613 208.716 172.613 187.793H163.017V265.782H178.487Z" fill="#F7E4AD"/>
<path d="M337.647 113.445C337.647 113.445 342.605 118.161 341.022 127.097C348.447 133.314 349.256 144.399 348.177 149.536C360.984 161.16 357.83 177.77 348.898 182.653C340.381 187.308 327.919 182.903 322.799 172.018C314.648 158.379 306.691 132.908 319.514 119.527C316.818 110.108 333.959 108.578 337.647 113.444V113.445Z" fill="#0E0E0E"/>
<path d="M320.427 135.511L307.773 122.636L307.784 100.356L303.604 99.8058C303.604 99.8058 300.183 120.068 300.194 124.376C300.204 128.198 313.017 144.815 313.017 144.815L320.425 135.513L320.427 135.511Z" fill="#FFA599"/>
<path d="M338.458 147.854L331.474 167.056H312.944C312.944 167.056 311.733 155.185 311.48 148.869C311.423 147.346 311.423 146.133 311.508 145.486C312.126 140.917 319.646 134.714 319.646 134.714C319.646 134.714 319.703 134.714 319.816 134.686C321.308 134.516 331.474 133.389 335.19 136.517C339.161 139.902 338.458 147.852 338.458 147.852V147.854Z" fill="#008C86"/>
<path d="M337.305 190.608H320.815C321.226 193.97 322.974 197.621 323.725 200.625C330.439 219.047 333.714 243.707 340.802 259.955C340.802 259.955 343.851 261.538 345.876 259.955C344.492 247.729 344.589 240.146 340.613 219.894C339.226 214.003 339.785 199.924 337.305 190.61V190.608Z" fill="#FFA599"/>
<path d="M309.568 190.608C307.43 211.035 303.498 255.158 303.064 259.711L308.306 259.738C311.742 248.046 316.127 237.557 316.513 222.724C319.187 214.564 323.638 200.838 326.974 190.606H309.566L309.568 190.608Z" fill="#FFA599"/>
<path d="M337.755 194.683L325.304 195.71L322.281 195.96L308.915 197.07C308.336 202.74 307.689 209.473 307.056 216.396C311.078 218.065 316.693 220.478 317.176 220.693L323.723 200.625C325.639 206.877 327.982 215.051 329.752 221.432C333.118 219.851 336.72 218.507 340.24 217.755C339.586 210.364 338.775 201.867 337.755 194.683Z" fill="#E87C5D"/>
<path d="M333.719 136.655L345.985 127.237L342.069 106.498L346.538 105.119C346.538 105.119 356.207 124.699 356.196 129.007C356.187 132.829 338.458 147.956 338.458 147.956C335.555 149.331 331.225 142.909 333.719 136.655Z" fill="#FFA599"/>
<path d="M321.578 134.154C321.578 134.154 316.365 137.724 318.312 140.394C319.988 142.694 324.125 140.073 324.125 140.073C324.125 140.073 324.819 143.629 327.6 143.155C331.465 142.495 332.274 136.794 330.656 134.934C329.038 133.074 323.466 133.194 321.58 134.154H321.578Z" fill="white"/>
<path d="M330.446 136.133C330.446 137.684 327.87 139.913 324.274 139.733C321.992 139.618 320.709 138.323 321.083 136.717L321.478 134.659L322.576 128.793L330.947 129.019L330.444 136.134L330.446 136.133Z" fill="#FFA599"/>
<path d="M330.376 130.118C329.221 132.536 326.937 134.391 321.478 134.659L322.576 128.793L330.348 129.019L330.376 130.118Z" fill="#E87C5D"/>
<path d="M334.205 125.544C332.767 130.284 327.24 133.134 321.731 131.218C316.457 126.714 318.901 120.854 320.052 119.214C318.674 111.414 327.302 107.696 332.827 110.886C337.566 113.624 337.247 119.932 334.205 125.543V125.544Z" fill="#FFA599"/>
<path d="M348.089 214.259C343.19 216.036 337.023 216.994 330.855 217.389C318.549 218.094 304.421 216.054 303.154 213.826C305.671 190.788 312.972 167.058 312.972 167.058H331.474C334.741 169.624 337.698 174.108 339.612 178.901C340.908 182.679 346.089 199.23 348.087 214.261L348.089 214.259Z" fill="#008C86"/>
<path d="M293.594 265.025C293.594 264.959 296.708 264.956 300.038 264.972C303.872 264.984 308.642 265.025 308.642 265.025C308.737 263.542 308.794 262.009 308.306 259.739L302.301 259.709C302.301 259.709 300.636 259.99 297.719 260.881C297.527 260.939 297.321 260.982 297.111 261.033C292.448 262.115 293.594 265.162 293.594 265.025Z" fill="#FDFEFF"/>
<path d="M293.594 265.025C293.594 264.959 296.708 264.956 300.038 264.972C300.142 264.668 300.195 264.345 300.195 264.012C300.195 262.565 299.159 261.333 297.719 260.881C297.525 260.934 297.321 260.982 297.111 261.033C292.448 262.115 293.594 265.162 293.594 265.025Z" fill="#D9ECFF"/>
<path d="M293.287 265.03H308.85V264.082H293.287V265.03Z" fill="#D9ECFF"/>
<path d="M340.456 265.238C340.546 265.242 342.071 265.221 343.962 265.203C347.041 265.173 351.087 265.15 351.468 265.238C352.539 262.642 350.315 261.312 348.267 260.578C347.395 260.269 346.551 260.066 346.011 259.923L340.795 259.953C340.305 262.221 340.361 263.756 340.456 265.238Z" fill="#FDFEFF"/>
<path d="M351.776 264.294H340.252V265.242H351.776V264.294Z" fill="#D9ECFF"/>
<path d="M343.964 265.203C347.042 265.173 351.089 265.15 351.469 265.238C352.541 262.642 350.317 261.312 348.269 260.578C347.081 260.452 345.696 260.648 344.605 261.788C343.452 262.995 343.551 264.238 343.964 265.205V265.203Z" fill="#D9ECFF"/>
<path d="M322.396 169.366C316.85 169.366 312.853 167.472 312.794 167.444C312.585 167.342 312.497 167.089 312.599 166.879C312.701 166.669 312.953 166.581 313.163 166.684C313.249 166.726 321.895 170.808 331.297 166.677C331.511 166.583 331.761 166.68 331.854 166.894C331.948 167.107 331.851 167.358 331.638 167.451C328.368 168.888 325.186 169.366 322.398 169.366H322.396Z" fill="white"/>
<path d="M313.919 118.311C319.678 125.204 327.237 111.462 332.318 115.78C332.318 115.78 332.767 126.084 336.227 122.62C337.305 121.33 338.518 115.24 335.643 113.216C335.712 109.886 330.178 106.596 323.698 108.158C319.215 109.42 317.904 112.729 317.56 114.201C314.999 113.505 312.599 115.969 313.919 118.311Z" fill="#0E0E0E"/>
<path d="M374.879 99.6053L261.704 78.9082L259.605 90.4145L372.78 111.112L374.879 99.6053Z" fill="#227AAB"/>
<path d="M374.919 99.3834L261.744 78.6863L261.605 79.4519L374.78 100.149L374.919 99.3834Z" fill="white"/>
<path d="M398.493 78.6256C381.854 75.5708 365.856 86.6498 362.805 103.337C359.782 119.998 370.847 136.018 387.483 139.073C404.122 142.099 420.12 131.02 423.171 114.361C426.222 97.7005 415.129 81.6803 398.493 78.6256ZM412.384 111.418C412.357 111.723 412.301 112.057 412.246 112.362C410.332 122.996 400.1 130.078 389.48 128.133C380.994 126.578 374.756 119.747 373.619 111.612C373.314 109.584 373.342 107.447 373.73 105.31C375.672 94.6757 385.876 87.5939 396.496 89.5386C406.785 91.4269 413.716 101.034 412.414 111.28C412.414 111.337 412.414 111.363 412.385 111.419L412.384 111.418Z" fill="#227AAB"/>
<path d="M279.603 86.3242L268.983 84.382L264.913 106.698L275.533 108.641L279.603 86.3242Z" fill="#227AAB"/>
<path d="M299.831 91.8234L289.21 89.8811L286.126 106.793L296.746 108.736L299.831 91.8234Z" fill="#227AAB"/>
<path d="M412.412 111.278C413.714 101.032 406.783 91.4251 396.494 89.5369C385.874 87.5921 375.67 94.674 373.728 105.308C373.34 107.445 373.312 109.584 373.617 111.61C373.284 110.221 373.118 108.778 373.118 107.279C373.118 96.3116 381.992 87.398 392.973 87.398C403.954 87.398 412.828 96.3116 412.828 107.279C412.828 108.64 412.689 110.001 412.412 111.278Z" fill="#0A3366"/>
<path d="M394.104 78.0167C371.178 77.0832 363.628 97.8752 363.545 98.1081L364.645 98.2828C364.966 97.3669 371.994 78.0873 394.104 79.1109V78.015V78.0167Z" fill="white"/>
<path d="M307.488 100.792C307.488 100.792 309.125 100.397 309.576 97.5858C310.027 94.7746 310.094 95.4275 310.094 95.4275C310.094 95.4275 308.551 94.6299 307.733 97.8752C305.31 97.7128 303.368 98.867 303.5 100.434C303.581 101.396 307.19 101.228 307.488 100.792Z" fill="#FFA599"/>
<path d="M303.734 99.5993L303.5 99.4511C303.547 99.3752 304.666 97.6369 307.627 97.7305C308.096 95.8899 308.981 95.0234 310.128 95.2916L310.065 95.5616C308.789 95.2634 308.167 96.6734 307.869 97.9069L307.842 98.0181L307.728 98.0128C304.862 97.8752 303.747 99.5817 303.736 99.5976L303.734 99.5993Z" fill="#FF7E59"/>
<path d="M342.305 107.65C342.305 107.65 339.891 106.844 338.936 101.809C340.488 100.704 341.098 103.625 341.098 103.625C341.098 103.625 343.72 103.471 345.516 104.288C346.466 104.721 346.693 105.245 347.226 106.589C348.595 109.485 342.303 107.648 342.303 107.648L342.305 107.65Z" fill="#FFA599"/>
<path d="M347.203 106.724C347.148 106.724 347.095 106.69 347.074 106.635C347.074 106.63 346.896 106.18 346.545 105.402C345.541 103.431 341.154 103.761 341.11 103.764L340.997 103.773L340.966 103.663C340.966 103.663 340.784 103.033 340.352 102.172C340.256 101.978 340.12 101.855 339.938 101.796C339.519 101.662 339.004 101.931 338.999 101.932C338.932 101.968 338.847 101.943 338.812 101.874C338.777 101.807 338.802 101.722 338.869 101.687C338.893 101.673 339.489 101.361 340.021 101.532C340.275 101.613 340.469 101.786 340.599 102.049C340.941 102.733 341.126 103.263 341.197 103.482C341.921 103.438 345.784 103.303 346.794 105.283C347.15 106.076 347.33 106.533 347.331 106.536C347.36 106.607 347.324 106.688 347.252 106.716C347.236 106.724 347.219 106.725 347.201 106.725L347.203 106.724Z" fill="#FF7E59"/>
<path d="M335.76 126.358C336.802 126.188 337.51 125.205 337.341 124.161C337.172 123.117 336.189 122.408 335.147 122.578C334.105 122.747 333.397 123.731 333.566 124.775C333.735 125.818 334.717 126.527 335.76 126.358Z" fill="#FFA599"/>
<path d="M303.154 214.091C303.154 214.091 303.138 214.091 303.13 214.091C302.985 214.077 302.878 213.948 302.89 213.804C304.871 192.242 312.241 168.201 312.631 166.945C312.546 165.909 311.254 149.868 311.244 145.489C311.235 141.529 319.051 134.627 319.382 134.334C319.491 134.237 319.659 134.25 319.756 134.359C319.853 134.469 319.84 134.636 319.731 134.733C319.652 134.804 311.763 141.767 311.772 145.487C311.781 149.97 313.147 166.784 313.161 166.954L313.164 167.005L313.149 167.054C313.071 167.299 305.435 191.873 303.415 213.853C303.403 213.991 303.286 214.093 303.153 214.093L303.154 214.091Z" fill="white"/>
</g>
<defs>
<clipPath id="clip0_7488_10393">
<rect width="447" height="268" fill="white"/>
</clipPath>
</defs>
</svg>
